<?xml version="1.0" standalone="no"?>
<!DOCTYPE svg PUBLIC "-//W3C//DTD SVG 20010904//EN"
 "http://www.w3.org/TR/2001/REC-SVG-20010904/DTD/svg10.dtd">
<svg version="1.0" xmlns="http://www.w3.org/2000/svg"
 width="600.000000pt" height="600.000000pt" viewBox="0 0 600.000000 600.000000"
 preserveAspectRatio="xMidYMid meet">

<g transform="translate(0.000000,600.000000) scale(0.100000,-0.100000)"
fill="#0D9214" stroke="none">
<path d="M2910 5957 c-93 -18 -134 -39 -624 -322 -243 -139 -722 -416 -1066
-614 -344 -197 -650 -379 -680 -403 -69 -54 -124 -133 -153 -218 l-22 -65 -3
-1302 c-3 -1430 -5 -1377 57 -1507 56 -116 103 -150 627 -450 258 -149 730
-421 1049 -605 319 -185 617 -354 662 -377 175 -88 318 -85 498 10 109 57
2130 1222 2181 1257 92 63 169 182 193 297 15 70 16 2605 1 2683 -16 85 -66
175 -134 243 -62 61 -291 196 -2076 1219 -267 153 -361 182 -510 154z m265
-1207 c528 -61 974 -331 1278 -772 67 -98 67 -98 44 -112 -38 -23 -739 -426
-743 -426 -2 0 -18 21 -35 48 -48 69 -156 179 -219 222 -85 58 -190 108 -276
132 -106 29 -344 32 -444 4 -255 -70 -459 -241 -569 -478 -55 -117 -71 -185
-78 -328 -4 -94 -2 -144 10 -202 130 -625 828 -907 1357 -548 65 44 183 166
225 232 17 27 33 48 37 48 12 0 753 -430 756 -438 1 -5 -23 -46 -54 -93 -267
-400 -663 -666 -1138 -761 -95 -20 -143 -23 -331 -23 -191 0 -235 3 -330 23
-242 51 -471 148 -660 280 -382 268 -637 652 -732 1100 -24 112 -27 150 -27
327 -1 229 13 336 70 521 179 594 656 1049 1254 1198 196 49 424 66 605 46z
m1553 -1402 l3 -68 99 0 99 0 3 68 3 67 88 3 87 3 0 -71 0 -70 70 0 70 0 0
-90 0 -90 -70 0 -70 0 0 -105 0 -105 70 0 70 0 0 -85 0 -85 -70 0 -70 0 0 -75
0 -76 -87 3 -88 3 -3 73 -3 72 -99 0 -99 0 -3 -72 -3 -73 -87 -3 -88 -3 0 76
0 75 -70 0 -70 0 0 85 0 85 70 0 70 0 0 105 0 105 -70 0 -70 0 0 90 0 90 70 0
70 0 0 70 0 71 88 -3 87 -3 3 -67z"/>
<path d="M4730 2995 l0 -105 100 0 100 0 0 105 0 105 -100 0 -100 0 0 -105z"/>
</g>
</svg>
