<?xml version="1.0" encoding="UTF-8" standalone="no"?>
<!DOCTYPE svg PUBLIC "-//W3C//DTD SVG 1.1//EN" "http://www.w3.org/Graphics/SVG/1.1/DTD/svg11.dtd">
<svg width="100%" height="100%" viewBox="0 0 69 69" version="1.1" xmlns="http://www.w3.org/2000/svg" xmlns:xlink="http://www.w3.org/1999/xlink" xml:space="preserve" xmlns:serif="http://www.serif.com/" style="fill-rule:evenodd;clip-rule:evenodd;stroke-linejoin:round;stroke-miterlimit:2;">
    <g transform="matrix(0.760244,0,0,0.760244,68.0205,38.6584)">
        <path d="M0,-12.22L0,-24.438C0,-38.998 -11.846,-50.85 -26.406,-50.85C-33.516,-50.85 -39.981,-48.021 -44.736,-43.437C-49.49,-48.021 -55.956,-50.85 -63.065,-50.85C-77.626,-50.85 -89.472,-38.998 -89.472,-24.438L-89.472,12.217C-89.472,26.784 -77.626,38.63 -63.065,38.63L-26.406,38.63C-11.846,38.63 0,26.784 0,12.217L0,-5.539L-52.817,-5.539L-52.817,10.627L-16.164,10.627L-16.164,12.217C-16.164,17.869 -20.761,22.465 -26.406,22.465L-63.065,22.465C-68.711,22.465 -73.308,17.869 -73.308,12.217L-73.308,-24.438C-73.308,-30.089 -68.711,-34.686 -63.065,-34.686C-57.414,-34.686 -52.817,-30.089 -52.817,-24.438L-52.817,-12.22L-36.654,-12.22L-36.654,-24.438C-36.654,-30.089 -32.057,-34.686 -26.406,-34.686C-20.761,-34.686 -16.164,-30.089 -16.164,-24.438L-16.164,-12.22L0,-12.22Z" style="fill:rgb(231,60,0);fill-rule:nonzero;"/>
    </g>
</svg>
